<svg xmlns="http://www.w3.org/2000/svg" id="Layer_1" data-name="Layer 1" viewBox="0 0 340 160"><defs><style>.cls-1{opacity:.8}.cls-2{fill:#3273ad}.cls-3{fill:#eff5f8}.cls-13,.cls-14,.cls-4,.cls-5,.cls-6,.cls-7{fill:none}.cls-4{stroke:#0aa5e3}.cls-10,.cls-12,.cls-13,.cls-15,.cls-16,.cls-17,.cls-18,.cls-4,.cls-8,.cls-9{stroke-linecap:round}.cls-10,.cls-12,.cls-15,.cls-16,.cls-17,.cls-18,.cls-4,.cls-8{stroke-linejoin:round}.cls-4,.cls-5,.cls-7{stroke-width:1.5px}.cls-5{stroke:#32b475}.cls-11,.cls-13,.cls-14,.cls-5,.cls-6,.cls-7,.cls-9{stroke-miterlimit:10}.cls-6{stroke:#349b67}.cls-7{stroke:#e3b462}.cls-8{fill:#b7d1e5}.cls-10,.cls-11,.cls-12,.cls-13,.cls-14,.cls-15,.cls-16,.cls-17,.cls-18,.cls-8,.cls-9{stroke:#3273ad}.cls-9{fill:#fad264}.cls-10{fill:#efcd97}.cls-11,.cls-12{fill:#deedfc}.cls-15{fill:#c3f1fc}.cls-16{fill:#48d4ff}.cls-17{fill:#0aa5e3}.cls-18,.cls-20{fill:#32b475}.cls-19{fill:#fff}</style></defs><title>Untitled-2</title><g class="cls-1"><path d="M13.83,160H8.21a0.5,0.5,0,0,1,0-1h5.62A0.5,0.5,0,0,1,13.83,160Z" class="cls-2"/><path d="M129.82,44.19H85.67a3.88,3.88,0,0,0,0,7.76h5.75a3.88,3.88,0,1,1,0,7.76H78.84a3.88,3.88,0,1,0,0,7.76H123a3.88,3.88,0,0,0,0-7.76H111a3.88,3.88,0,1,1,0-7.76h18.87A3.88,3.88,0,0,0,129.82,44.19Z" class="cls-3"/><path d="M319.89,126H275.74a3.88,3.88,0,1,0,0,7.76h5.75a3.88,3.88,0,0,1,0,7.76H268.92a3.88,3.88,0,1,0,0,7.76h44.15a3.88,3.88,0,1,0,0-7.76H301a3.88,3.88,0,0,1,0-7.76h18.87A3.88,3.88,0,1,0,319.89,126Z" class="cls-3"/><path d="M167.3,0H222a3.4,3.4,0,1,1,0,6.79H200.9a3.4,3.4,0,1,0,0,6.79h11a3.4,3.4,0,1,1,0,6.79H173.27a3.4,3.4,0,1,1,0-6.79h10.54a3.4,3.4,0,1,0,0-6.79H167.3A3.4,3.4,0,0,1,167.3,0Z" class="cls-3"/><path d="M4.83,149.22H56.48a3.88,3.88,0,0,0,0-7.76H43.23a3.88,3.88,0,1,1,0-7.76h8.3a3.88,3.88,0,1,0,0-7.76H18.08a3.88,3.88,0,1,0,0,7.76H23.7a3.88,3.88,0,1,1,0,7.76H4.83A3.88,3.88,0,0,0,4.83,149.22Z" class="cls-3"/><path d="M323.31,63.53H271.66a3.88,3.88,0,0,0,0,7.76h13.25a3.88,3.88,0,0,1,0,7.76h-8.3a3.88,3.88,0,1,0,0,7.76h33.45a3.88,3.88,0,1,0,0-7.76h-5.62a3.88,3.88,0,0,1,0-7.76h18.87A3.88,3.88,0,0,0,323.31,63.53Z" class="cls-3"/><circle cx="266.82" cy="24.06" r="5.25" class="cls-4"/><circle cx="115.68" cy="14.43" r="5.25" class="cls-5"/><circle cx="141.42" cy="27.97" r="1.67" class="cls-6"/><circle cx="253.48" cy="45.09" r="2.84" class="cls-5"/><circle cx="207.63" cy="14.31" r="4.28" class="cls-7"/><circle cx="328.78" cy="138.96" r="5.25" class="cls-4"/><circle cx="40.83" cy="137.27" r="5.25" class="cls-7"/><circle cx="292.36" cy="68.76" r="4.82" class="cls-7"/><circle cx="61.7" cy="82.48" r="4.82" class="cls-4"/><path d="M328.88,160H18.47a0.54,0.54,0,0,1,0-1.07H328.88A0.54,0.54,0,0,1,328.88,160Z" class="cls-2"/><path d="M105.83,83l-6.21-6.21a2.81,2.81,0,0,0-4.75,1.55,21.76,21.76,0,0,0,4.62,17.35l6.34-6.34a4.49,4.49,0,0,0,0-6.34h0Zm0,0" class="cls-8"/><path d="M131.86,64.65a21.64,21.64,0,0,0-18-5.3,2.8,2.8,0,0,0-1.54,4.75L120,71.79a6.89,6.89,0,0,1,0,9.71L102.66,98.85l4.93,4.93V155a4.48,4.48,0,0,0,4.49,4.49h9.52a4.47,4.47,0,0,0,3.17-1.31,4.4,4.4,0,0,0,1.36-3.12l0-51.14,6.62-6.62c0.5-.5.91-0.92,1.33-1.43,7.68-9.09,6.57-23.22-2.27-31.19h0ZM120,150.22a4.49,4.49,0,1,1,0-6.34,4.49,4.49,0,0,1,0,6.34h0Zm-1.49-51.37L115.34,102l-1.59-4.76,3.17-3.17Zm6.34-6.34-3.17,3.17-1.59-4.76,3.17-3.17Zm6.34-6.34L128,89.34l-1.59-4.76,3.17-3.17Zm0,0" class="cls-8"/><rect width="56.27" height="30.58" x="54.06" y="128.89" class="cls-9"/><polygon points="110.33 128.89 82.19 110.17 54.06 128.89 110.33 128.89" class="cls-10"/><polygon points="104.6 105.56 60.08 105.56 60.08 132.89 72.05 140.86 92.63 140.86 104.6 132.89 104.6 105.56" class="cls-11"/><rect width="23.98" height="9.36" x="64.69" y="110.17" class="cls-12"/><line x1="64.69" x2="99.63" y1="123.69" y2="123.69" class="cls-13"/><line x1="64.69" x2="99.63" y1="127.97" y2="127.97" class="cls-13"/><line x1="92.42" x2="99.63" y1="112.71" y2="112.71" class="cls-13"/><line x1="92.42" x2="99.63" y1="116.99" y2="116.99" class="cls-13"/><line x1="64.69" x2="99.63" y1="132.24" y2="132.24" class="cls-13"/><line x1="54.06" x2="72.05" y1="128.89" y2="140.86" class="cls-14"/><line x1="72.05" x2="93.15" y1="140.86" y2="140.86" class="cls-14"/><line x1="110.33" x2="93.15" y1="128.89" y2="140.86" class="cls-14"/><line x1="54.06" x2="72.05" y1="159.46" y2="140.86" class="cls-14"/><line x1="93.15" x2="110.33" y1="140.86" y2="159.46" class="cls-14"/><path d="M211.91,62V34.21h-49a5.37,5.37,0,0,0-5.35,5.35v98.5a5.37,5.37,0,0,0,5.35,5.35h76.63a5.37,5.37,0,0,0,5.35-5.35V67.4" class="cls-15"/><path d="M244.87,67.4l-33-33.19V62a5.37,5.37,0,0,0,5.35,5.35h27.61" class="cls-16"/><path d="M191.57,78.1V50.26h-49a5.37,5.37,0,0,0-5.35,5.35v98.5a5.37,5.37,0,0,0,5.35,5.35h76.63a5.37,5.37,0,0,0,5.35-5.35V83.46" class="cls-17"/><path d="M224.54,83.46l-33-33.19V78.1a5.37,5.37,0,0,0,5.35,5.35h27.61" class="cls-16"/><path d="M161.1,120.3a20.86,20.86,0,0,0,1.87,4.43l-2.25,2.84a2.33,2.33,0,0,0,.17,3.09l3.88,3.88a2.32,2.32,0,0,0,3.09.17l2.82-2.23a20.52,20.52,0,0,0,4.6,1.95l0.42,3.63a2.33,2.33,0,0,0,2.31,2.06h5.49a2.33,2.33,0,0,0,2.31-2.06l0.4-3.5a20.72,20.72,0,0,0,4.94-2l2.73,2.16a2.33,2.33,0,0,0,3.09-.17l3.88-3.88a2.32,2.32,0,0,0,.17-3.09l-2.12-2.69a20.26,20.26,0,0,0,2-4.85l3.27-.38a2.33,2.33,0,0,0,2.06-2.31v-5.49a2.33,2.33,0,0,0-2.06-2.31l-3.23-.38a20.39,20.39,0,0,0-1.95-4.8l2-2.51a2.33,2.33,0,0,0-.17-3.09L197,94.92a2.32,2.32,0,0,0-3.09-.17l-2.44,1.93a20.45,20.45,0,0,0-5-2.11L186,91.41a2.33,2.33,0,0,0-2.31-2.06h-5.49a2.33,2.33,0,0,0-2.31,2.06l-0.37,3.15a20.38,20.38,0,0,0-5.17,2.19l-2.53-2a2.33,2.33,0,0,0-3.09.17l-3.88,3.88a2.32,2.32,0,0,0-.17,3.09l2.11,2.67a20,20,0,0,0-1.91,4.84l-3.38.39a2.33,2.33,0,0,0-2.06,2.31v5.49a2.33,2.33,0,0,0,2.06,2.31ZM181,105.46a9.07,9.07,0,1,1-9.07,9.07,9.09,9.09,0,0,1,9.07-9.07h0Zm0,0" class="cls-11"/><path d="M235.55,89.41v70.06h68.58Zm14.06,56.12V121.15l22.05,24.38H249.61Z" class="cls-18"/><rect width=".27" height="3.94" x="293.59" y="154.91" class="cls-19"/><rect width=".27" height="2.47" x="295.24" y="156.38" class="cls-19"/><rect width=".27" height="3.94" x="290.22" y="154.91" class="cls-19"/><rect width=".27" height="2.47" x="291.86" y="156.38" class="cls-19"/><rect width=".27" height="3.94" x="286.84" y="154.91" class="cls-19"/><rect width=".27" height="2.47" x="288.49" y="156.38" class="cls-19"/><rect width=".27" height="3.94" x="283.47" y="154.91" class="cls-19"/><rect width=".27" height="2.47" x="285.11" y="156.38" class="cls-19"/><rect width=".27" height="3.94" x="280.09" y="154.91" class="cls-19"/><rect width=".27" height="2.47" x="281.74" y="156.38" class="cls-19"/><rect width=".27" height="3.94" x="276.72" y="154.91" class="cls-19"/><rect width=".27" height="2.47" x="278.36" y="156.38" class="cls-19"/><rect width=".27" height="3.94" x="273.34" y="154.91" class="cls-19"/><rect width=".27" height="2.47" x="274.99" y="156.38" class="cls-19"/><rect width=".27" height="3.94" x="269.97" y="154.91" class="cls-19"/><rect width=".27" height="2.47" x="271.61" y="156.38" class="cls-19"/><rect width=".27" height="3.94" x="266.59" y="154.91" class="cls-19"/><rect width=".27" height="2.47" x="268.24" y="156.38" class="cls-19"/><rect width=".27" height="3.94" x="263.22" y="154.91" class="cls-19"/><rect width=".27" height="2.47" x="264.86" y="156.38" class="cls-19"/><rect width=".27" height="3.94" x="259.84" y="154.91" class="cls-19"/><rect width=".27" height="2.47" x="261.49" y="156.38" class="cls-19"/><rect width=".27" height="3.94" x="256.47" y="154.91" class="cls-19"/><rect width=".27" height="2.47" x="258.11" y="156.38" class="cls-19"/><rect width=".27" height="3.94" x="253.09" y="154.91" class="cls-19"/><rect width=".27" height="2.47" x="254.74" y="156.38" class="cls-19"/><rect width=".27" height="3.94" x="249.72" y="154.91" class="cls-19"/><rect width=".27" height="2.47" x="251.36" y="156.38" class="cls-19"/><rect width=".27" height="3.94" x="246.34" y="154.91" class="cls-19"/><rect width=".27" height="2.47" x="247.99" y="156.38" class="cls-19"/><rect width=".27" height="3.94" x="242.97" y="154.91" class="cls-19"/><rect width=".27" height="2.47" x="244.61" y="156.38" class="cls-19"/><rect width=".27" height="3.94" x="239.59" y="154.91" class="cls-19"/><rect width=".27" height="2.47" x="241.24" y="156.38" class="cls-19"/><rect width="3.94" height=".27" x="236.19" y="148.88" class="cls-19"/><rect width="2.47" height=".27" x="236.19" y="150.53" class="cls-19"/><rect width="3.94" height=".27" x="236.19" y="145.51" class="cls-19"/><rect width="2.47" height=".27" x="236.19" y="147.15" class="cls-19"/><rect width="3.94" height=".27" x="236.19" y="142.13" class="cls-19"/><rect width="2.47" height=".27" x="236.19" y="143.78" class="cls-19"/><rect width="3.94" height=".27" x="236.19" y="138.76" class="cls-19"/><rect width="2.47" height=".27" x="236.19" y="140.4" class="cls-19"/><rect width="3.94" height=".27" x="236.19" y="135.38" class="cls-19"/><rect width="2.47" height=".27" x="236.19" y="137.02" class="cls-19"/><rect width="3.94" height=".27" x="236.19" y="132.01" class="cls-19"/><rect width="2.47" height=".27" x="236.19" y="133.65" class="cls-19"/><rect width="3.94" height=".27" x="236.19" y="128.63" class="cls-19"/><rect width="2.47" height=".27" x="236.19" y="130.27" class="cls-19"/><rect width="3.94" height=".27" x="236.19" y="125.26" class="cls-19"/><rect width="2.47" height=".27" x="236.19" y="126.9" class="cls-19"/><rect width="3.94" height=".27" x="236.19" y="121.88" class="cls-19"/><rect width="2.47" height=".27" x="236.19" y="123.52" class="cls-19"/><rect width="3.94" height=".27" x="236.19" y="118.51" class="cls-19"/><rect width="2.47" height=".27" x="236.19" y="120.15" class="cls-19"/><rect width="3.94" height=".27" x="236.19" y="115.13" class="cls-19"/><rect width="2.47" height=".27" x="236.19" y="116.77" class="cls-19"/><rect width="3.94" height=".27" x="236.19" y="111.76" class="cls-19"/><rect width="2.47" height=".27" x="236.19" y="113.4" class="cls-19"/><rect width="3.94" height=".27" x="236.19" y="108.38" class="cls-19"/><rect width="2.47" height=".27" x="236.19" y="110.02" class="cls-19"/><rect width="3.94" height=".27" x="236.19" y="105.01" class="cls-19"/><rect width="2.47" height=".27" x="236.19" y="106.65" class="cls-19"/><rect width="3.94" height=".27" x="236.19" y="101.63" class="cls-19"/><rect width="2.47" height=".27" x="236.19" y="103.27" class="cls-19"/><path d="M289.12,131.09l10.44,3.36h0.15a0.6,0.6,0,0,0,.21,0l0,0a0.57,0.57,0,0,0,.18-0.12,0.58,0.58,0,0,0,.14-0.2,0.63,0.63,0,0,0,0-.23,0.58,0.58,0,0,0,0-.15l-3.25-10.55" class="cls-11"/><path d="M261.4,102.35a5.11,5.11,0,0,1,.81-6.11,5.09,5.09,0,0,1,6.11-.81Z" class="cls-20"/><path d="M265.8,95.3h0a4.55,4.55,0,0,1,1.61.29l-5.84,5.84a4.57,4.57,0,0,1,1-4.81,4.51,4.51,0,0,1,3.21-1.32m0-1.07a5.6,5.6,0,0,0-4.48,9l7.85-7.85a5.6,5.6,0,0,0-3.36-1.12h0Z" class="cls-2"/><polyline points="299.08 129.72 300.22 134.38 295.43 132.94" class="cls-2"/><polyline points="289.12 131.09 266.94 108.9 274.87 100.97 297.06 123.16" class="cls-9"/><line x1="291.61" x2="272.39" y1="128.43" y2="108.87" class="cls-17"/><line x1="294.28" x2="275.06" y1="125.81" y2="106.25" class="cls-17"/><line x1="265.03" x2="272.9" y1="107.19" y2="99.19" class="cls-17"/><line x1="263" x2="270.87" y1="105.2" y2="97.2" class="cls-17"/><path d="M338.51,160h-3.88a0.54,0.54,0,1,1,0-1.07h3.88A0.54,0.54,0,0,1,338.51,160Z" class="cls-2"/></g></svg>