<svg xmlns="http://www.w3.org/2000/svg" xmlns:xlink="http://www.w3.org/1999/xlink" id="Layer_1" x="0" y="0" version="1.1" viewBox="0 0 96 85.7" xml:space="preserve" style="enable-background:new 0 0 96 85.7"><style type="text/css">.st0{fill:#32b475}</style><g><g><polygon points="92.7 53 73.2 35.5 22.8 35.5 3.3 53 .7 50.1 21.2 31.5 74.8 31.5 95.3 50.1" class="st0"/></g><g><path d="M90,84.5H6c-3.3,0-6-2.7-6-6v-29h32v2c0,5,4,9,9,9h14c5,0,9-4,9-9v-2h32v29C96,81.9,93.3,84.5,90,84.5z M4,53.5v25c0,1.1,0.9,2,2,2h84c1.1,0,2-0.9,2-2v-25H67.8c-1,6.2-6.4,11-12.8,11H41c-6.5,0-11.9-4.8-12.8-11H4z" class="st0"/></g><g><rect width="4" height="13" x="28.5" y="4.5" class="st0" transform="matrix(0.8437 -0.5369 0.5369 0.8437 -1.1632 18.1019)"/></g><g><rect width="13" height="4" x="60" y="9" class="st0" transform="matrix(0.5368 -0.8437 0.8437 0.5368 21.4845 61.2234)"/></g><g><rect width="4" height="13" x="46" y="2.5" class="st0"/></g></g></svg>